<svg width="212" height="212" viewBox="0 0 212 212" fill="none" xmlns="http://www.w3.org/2000/svg">
<g clip-path="url(#clip0_8139_580)">
<path d="M68.3636 77.4209H5.32959V134.796H68.3636V77.4209Z" fill="#F4783C"/>
<path d="M48.2926 91.1716C47.1282 87.7489 41.175 86.1107 36.7895 86.1913C35.0403 86.2216 30.2414 86.3072 26.5868 90.0475C23.8396 92.8603 23.27 96.1671 23.149 97.0442C23.0179 97.9516 22.6096 101.163 24.3336 104.399C26.4558 108.376 30.5892 110.095 31.8646 110.624C35.3377 112.066 38.2614 111.93 39.1587 113.946C39.2796 114.223 39.7182 115.201 39.3351 116.199C39.0477 116.95 38.4328 117.349 38.09 117.565C36.4114 118.614 34.4001 118.241 33.3466 118.039C31.5218 117.691 29.9995 116.875 29.077 116.381C27.9579 115.776 27.4438 115.201 26.3499 115.075C26.0827 115.045 25.0242 114.939 24.0362 115.489C22.0954 116.572 21.7527 119.456 22.1408 121.361C22.2063 121.689 22.4937 122.979 23.5472 124.25C23.8497 124.618 24.8679 125.767 27.9882 126.841C29.3794 127.319 32.3586 128.312 36.3812 127.995C39.0679 127.783 41.0288 127.077 41.7143 126.815C43.4887 126.135 45.6311 125.313 47.4659 123.196C49.3814 120.983 49.8855 118.599 50.0872 117.576C50.2737 116.623 50.8584 113.452 49.3663 110.09C47.9196 106.823 45.2883 105.135 43.7307 104.162C38.7151 101.021 34.1632 101.586 33.5885 99.121C33.3819 98.2338 33.8053 97.4324 33.8255 97.4021C34.6521 95.8999 37.0314 95.8697 37.6212 95.8596C39.2393 95.8395 40.4793 96.4141 41.059 96.6914C43.1056 97.6693 43.2115 98.6623 44.6179 98.8287C45.7268 98.9597 46.8661 98.4859 47.5819 97.76C48.58 96.7518 48.6152 95.4059 48.6556 94.0248C48.6858 92.9259 48.5195 91.8421 48.2926 91.1767V91.1716Z" fill="white"/>
<path d="M108.802 112.691C113.258 112.691 117.72 112.691 122.176 112.691C122.453 112.691 123.002 112.641 123.512 112.273C123.512 112.273 123.98 111.935 124.258 111.305C124.641 110.443 126.052 104.253 121.788 99.7815C118.375 96.2025 113.712 96.2227 112.805 96.2227C111.741 96.2227 107.824 96.384 104.442 99.3076C100.117 103.043 99.991 108.437 99.9507 110.276C99.9305 111.138 99.8499 118.811 104.739 122.168C106.317 123.252 108.399 123.851 108.636 123.917C110.718 124.507 112.477 124.507 113.884 124.502C115.386 124.502 116.58 124.35 117.392 124.255C118.713 124.093 119.363 123.932 119.575 123.882C121.001 123.524 121.878 123.317 122.559 122.556C123.224 121.815 123.401 120.968 123.496 120.474C123.723 119.315 123.728 117.187 122.675 116.648C122.08 116.346 121.777 116.875 119.353 117.485C117.856 117.863 116.701 117.974 116.096 118.019C115.29 118.08 114.609 118.07 114.141 118.049C113.773 118.075 111.988 118.15 110.466 116.835C109.246 115.781 108.913 114.46 108.823 114.017C108.818 113.578 108.812 113.14 108.807 112.696L108.802 112.691Z" fill="#F4783C"/>
<path d="M109.825 103.739C108.636 104.954 108.656 106.577 108.671 106.94C111.428 106.955 114.186 106.97 116.943 106.985C116.958 106.758 117.049 104.626 115.431 103.335C113.777 102.02 111.242 102.292 109.825 103.734V103.739Z" fill="white"/>
<path d="M142.823 107.898C139.254 107.273 136.542 107.823 135.055 108.256C133.639 108.664 132.399 109.042 131.169 110.126C128.522 112.46 128.416 115.908 128.411 116.619C128.406 117.405 128.391 119.905 130.13 122.043C132.6 125.082 136.87 125.254 139.562 124.593C141.341 124.155 142.631 123.303 143.388 122.708H144.174C144.386 122.779 144.597 122.849 144.809 122.92C146.387 122.824 147.965 122.728 149.547 122.632C149.845 122.506 150.137 122.385 150.435 122.259C150.389 114.875 150.369 109.239 150.505 105.705C150.535 104.949 150.596 103.341 149.734 101.673C148.67 99.6211 146.901 98.7137 145.968 98.2349C144.547 97.5039 143.347 97.3124 141.966 97.1057C140.393 96.8688 138.085 96.5512 135.292 97.2821C133.573 97.7358 130.972 98.4214 129.994 100.528C129.45 101.703 129.611 102.882 129.626 103.009C129.697 103.472 129.863 104.596 130.624 105.005C131.335 105.388 132.056 104.874 133.543 104.334C134.208 104.092 136.411 103.346 138.73 103.432C139.279 103.452 142.077 103.558 142.616 104.914C142.727 105.196 142.757 105.569 142.808 106.28C142.858 106.955 142.843 107.515 142.823 107.903V107.898Z" fill="#F4783C"/>
<path d="M142.929 113.009C142.022 112.762 140.797 112.586 139.416 112.833C138.337 113.024 137.167 113.236 136.391 114.254C136.3 114.37 135.509 115.444 135.766 116.835C135.821 117.128 135.968 117.924 136.653 118.479C137.434 119.114 138.397 119.018 138.876 118.968C139.602 118.892 140.101 118.64 140.746 118.302C141.326 117.995 142.153 117.486 143.015 116.659C142.984 115.444 142.954 114.229 142.924 113.009H142.929Z" fill="white"/>
<path d="M89.3899 124.905C87.676 124.905 86.4107 124.905 85.7302 123.992C85.3824 123.528 85.3068 122.994 85.3018 122.636V93.3188C85.3471 92.9558 85.4479 92.4366 85.7302 91.9628C86.3805 90.874 87.5046 90.8135 89.037 90.7631C90.7307 90.7076 92.1976 90.6572 92.9638 91.9628C93.2461 92.4467 93.352 92.9659 93.3923 93.3188V122.636C93.3772 123.034 93.2915 123.589 92.9184 124.058C92.243 124.91 91.0785 124.905 89.3899 124.905Z" fill="#F4783C"/>
<path d="M103.106 92.9507C103.106 92.9507 103.146 95.6475 102.37 96.2776C102.078 96.5145 101.735 96.6103 101.735 96.6103C101.589 96.6507 101.438 96.6708 101.276 96.6708H77.6651C77.3727 96.6305 76.9543 96.5398 76.5712 96.2827C75.6941 95.6929 75.6437 94.6746 75.6034 93.2783C75.558 91.7409 75.5177 90.4051 76.5712 89.7094C76.9593 89.4523 77.3828 89.3566 77.6651 89.3213H101.276C101.579 89.3566 102.002 89.4473 102.37 89.7094C102.763 89.9917 103.071 90.4454 103.106 92.9557V92.9507Z" fill="#F4783C"/>
<path d="M147.374 124.653C146.089 124.668 145.081 124.668 144.461 123.927C144.315 123.751 144.224 123.574 144.173 123.453C144.138 123.342 144.123 123.232 144.123 123.111V105.437C144.158 105.221 144.239 104.903 144.461 104.621C144.975 103.965 145.862 103.925 147.072 103.895C148.408 103.86 149.567 103.829 150.172 104.621C150.394 104.913 150.48 105.226 150.51 105.437V123.111C150.469 123.342 150.384 123.65 150.172 123.927C149.653 124.613 148.771 124.638 147.369 124.653H147.374Z" fill="#F4783C"/>
<path d="M161.429 124.5C161.429 124.5 158.46 124.541 157.769 123.764C157.507 123.467 157.406 123.124 157.406 123.124C157.366 122.978 157.341 122.822 157.341 122.66V98.908C157.386 98.6156 157.487 98.1922 157.769 97.8091C158.42 96.927 159.544 96.8766 161.076 96.8362C162.77 96.7909 164.237 96.7505 165.003 97.8091C165.285 98.2023 165.391 98.6257 165.431 98.908V122.66C165.391 122.963 165.29 123.386 165.003 123.759C164.695 124.152 164.191 124.46 161.429 124.495V124.5Z" fill="#F4783C"/>
<path d="M191.583 124.501C191.583 124.501 188.614 124.532 187.924 123.957C187.661 123.74 187.561 123.488 187.561 123.488C187.52 123.382 187.495 123.266 187.495 123.151V105.679C187.54 105.462 187.641 105.155 187.924 104.872C188.574 104.222 189.698 104.187 191.23 104.157C192.924 104.121 194.391 104.091 195.157 104.872C195.439 105.16 195.545 105.472 195.586 105.679V123.151C195.545 123.372 195.445 123.685 195.157 123.957C194.85 124.244 194.346 124.476 191.583 124.501Z" fill="#F4783C"/>
<path d="M176.506 124.501C176.506 124.501 173.537 124.531 172.846 123.906C172.584 123.669 172.484 123.392 172.484 123.392C172.443 123.276 172.418 123.15 172.418 123.019V103.849C172.463 103.612 172.564 103.274 172.846 102.962C173.497 102.246 174.621 102.21 176.153 102.175C177.847 102.14 179.314 102.105 180.08 102.962C180.362 103.279 180.468 103.617 180.509 103.849V123.019C180.468 123.261 180.367 123.609 180.08 123.906C179.773 124.224 179.268 124.471 176.506 124.501Z" fill="#F4783C"/>
<path d="M195.621 104.892C195.606 104.106 195.455 101.57 193.655 99.2361C193.308 98.7875 191.563 96.6149 188.489 95.9999C185.646 95.4354 183.438 96.5544 182.47 97.0686C180.514 98.107 179.314 99.5487 178.704 100.401C178.331 99.6898 177.328 97.9961 175.322 96.9123C173.124 95.7227 171.078 95.9999 170.221 96.1259C169.374 96.252 166.929 96.6603 165.003 98.8581C163.305 100.794 161.505 104.463 162.957 106.712C163.587 107.685 164.635 108.103 165.432 108.289C165.432 108.143 165.427 105.583 167.347 104.348C167.584 104.196 169.066 103.239 170.594 104.02C171.708 104.589 172.418 105.86 172.418 107.281C172.691 107.77 172.958 108.264 173.23 108.753C173.018 110.875 174.248 112.73 175.821 113.139C177.721 113.628 180.04 111.979 180.252 109.328C180.338 108.738 180.423 108.148 180.509 107.559C181.154 104.469 183.856 103.052 185.535 103.763C186.77 104.282 187.616 106.021 187.49 107.982C188.978 107.594 190.097 107.085 190.858 106.686C191.881 106.142 192.37 105.734 193.141 105.744C194.19 105.754 195.032 106.525 195.586 107.18C195.596 106.419 195.606 105.658 195.616 104.892H195.621Z" fill="#F4783C"/>
</g>
<rect x="8.10684" y="79.706" width="196.636" height="52.2379" rx="4.45934" stroke="#F4783C" stroke-width="4.67169"/>
<defs>
<clipPath id="clip0_8139_580">
<rect x="5.771" y="77.3701" width="201.307" height="56.9096" rx="6.79518" fill="white"/>
</clipPath>
</defs>
</svg>
