<svg width="25" height="24" viewBox="0 0 25 24" fill="none" xmlns="http://www.w3.org/2000/svg">
<g clip-path="url(#clip0_8889_725)">
<path d="M10.8581 0.702271L8.64878 0.126243C8.17692 0.000522339 7.68491 -0.030964 7.20087 0.0335838C6.71683 0.0981316 6.25026 0.257448 5.82783 0.502424C5.4054 0.747401 5.03539 1.07323 4.73897 1.4613C4.44254 1.84936 4.22551 2.29204 4.10027 2.76403L3.54883 4.84686C5.36733 2.58351 7.98215 1.10082 10.8581 0.702271Z" fill="#F4783C"/>
<path d="M1.16726 13.8135L0.626356 15.8542C0.373511 16.8067 0.509365 17.8206 1.00404 18.6729C1.49871 19.5253 2.31168 20.1462 3.26414 20.3992L5.37156 20.9611C3.12131 19.1919 1.62019 16.6399 1.16726 13.8135Z" fill="#F4783C"/>
<path d="M21.7359 3.60039L19.3721 2.97168C20.5665 3.89047 21.5666 5.03735 22.3142 6.34574C23.0619 7.65413 23.5422 9.09799 23.7274 10.5935L24.3772 8.13486C24.6267 7.18335 24.4888 6.17172 23.9937 5.32172C23.4986 4.47173 22.6867 3.85272 21.7359 3.60039Z" fill="#F4783C"/>
<path d="M14.0889 23.2728L16.3543 23.884C17.3068 24.1368 18.3208 24.001 19.1731 23.5063C20.0254 23.0116 20.6464 22.1987 20.8993 21.2462L21.5386 18.8438C19.7362 21.2444 17.0588 22.8362 14.0889 23.2728Z" fill="#F4783C"/>
<path d="M12.5015 1.59473C10.443 1.59403 8.43053 2.20381 6.71862 3.34694C5.00672 4.49007 3.67226 6.1152 2.88403 8.01679C2.0958 9.91839 1.8892 12.011 2.29037 14.03C2.69153 16.0491 3.68244 17.9038 5.13776 19.3596C6.59309 20.8154 8.44746 21.8069 10.4663 22.2088C12.4852 22.6106 14.5779 22.4047 16.4798 21.6172C18.3817 20.8296 20.0072 19.4957 21.1509 17.7841C22.2947 16.0726 22.9051 14.0604 22.9051 12.0019C22.9051 9.24233 21.8091 6.59577 19.8582 4.64415C17.9072 2.69253 15.261 1.59566 12.5015 1.59473ZM6.60773 6.78601C6.71901 6.20902 6.99886 5.67798 7.41191 5.26002C7.82496 4.84206 8.35266 4.55596 8.92829 4.43787C9.50393 4.31979 10.1017 4.37502 10.6459 4.5966C11.1901 4.81818 11.6565 5.19615 11.9859 5.68273C12.3154 6.1693 12.4932 6.74264 12.4968 7.33025C12.5005 7.91786 12.3298 8.49336 12.0064 8.98399C11.6831 9.47462 11.2215 9.85836 10.68 10.0867C10.1386 10.315 9.54158 10.3777 8.96453 10.2668C8.58117 10.1931 8.21609 10.0446 7.89015 9.82974C7.56421 9.6149 7.28379 9.33795 7.06492 9.01471C6.84605 8.69146 6.69303 8.32825 6.61458 7.94584C6.53613 7.56343 6.5338 7.16931 6.60773 6.78601ZM10.9315 15.7777C10.8194 16.3544 10.5388 16.8851 10.1253 17.3024C9.71171 17.7198 9.18369 18.0052 8.60796 18.1225C8.03224 18.2399 7.43464 18.1839 6.89072 17.9617C6.3468 17.7394 5.88097 17.361 5.55211 16.8741C5.22325 16.3871 5.04612 15.8137 5.04312 15.2261C5.04011 14.6385 5.21137 14.0633 5.53523 13.573C5.8591 13.0828 6.32104 12.6996 6.86266 12.4718C7.40428 12.244 8.00127 12.1819 8.57817 12.2934C8.96156 12.3675 9.3266 12.5164 9.65241 12.7316C9.97822 12.9468 10.2584 13.2242 10.477 13.5478C10.6955 13.8714 10.8482 14.2349 10.9261 14.6175C11.0041 15.0001 11.0059 15.3943 10.9315 15.7777ZM12.1924 13.3717C11.9363 13.3221 11.7006 13.1979 11.515 13.0145C11.3295 12.8312 11.2024 12.597 11.1497 12.3415C11.0971 12.086 11.1213 11.8207 11.2193 11.5789C11.3173 11.3372 11.4847 11.1299 11.7004 10.9831C11.9161 10.8364 12.1704 10.7569 12.4312 10.7545C12.6921 10.7521 12.9478 10.8271 13.1661 10.9698C13.3844 11.1126 13.5555 11.3169 13.6579 11.5568C13.7603 11.7967 13.7893 12.0616 13.7413 12.318C13.7093 12.4891 13.6438 12.6522 13.5485 12.798C13.4532 12.9437 13.33 13.0691 13.186 13.167C13.0421 13.265 12.8802 13.3335 12.7097 13.3686C12.5391 13.4037 12.3633 13.4048 12.1924 13.3717ZM18.3917 17.2107C18.2804 17.7877 18.0006 18.3187 17.5875 18.7367C17.1745 19.1547 16.6468 19.4408 16.0712 19.5588C15.4955 19.6769 14.8978 19.6217 14.3536 19.4001C13.8093 19.1785 13.343 18.8006 13.0135 18.314C12.6841 17.8274 12.5063 17.2541 12.5026 16.6665C12.499 16.0789 12.6696 15.5034 12.993 15.0127C13.3164 14.5221 13.778 14.1384 14.3194 13.91C14.8609 13.6817 15.4579 13.619 16.0349 13.73C16.4183 13.8036 16.7834 13.9521 17.1093 14.167C17.4352 14.3818 17.7157 14.6588 17.9345 14.982C18.1534 15.3053 18.3064 15.6685 18.3849 16.0509C18.4633 16.4333 18.4656 16.8274 18.3917 17.2107ZM16.4248 11.7033C15.8478 11.592 15.3168 11.3122 14.8988 10.8991C14.4809 10.4861 14.1947 9.95839 14.0767 9.38275C13.9586 8.80712 14.0138 8.2094 14.2354 7.66515C14.457 7.12091 14.8349 6.65458 15.3215 6.32512C15.8081 5.99567 16.3814 5.81787 16.969 5.81422C17.5566 5.81057 18.1321 5.98122 18.6228 6.3046C19.1134 6.62799 19.4972 7.08958 19.7255 7.63103C19.9538 8.17247 20.0165 8.76946 19.9055 9.34652C19.8323 9.73019 19.684 10.0956 19.4694 10.422C19.2547 10.7483 18.9778 11.0291 18.6545 11.2484C18.3313 11.4676 17.9679 11.6209 17.5853 11.6996C17.2027 11.7783 16.8083 11.7807 16.4248 11.7068V11.7033Z" fill="#F4783C"/>
</g>
<defs>
<clipPath id="clip0_8889_725">
<rect width="24" height="24" fill="white" transform="translate(0.5)"/>
</clipPath>
</defs>
</svg>
