<svg width="24" height="24" viewBox="0 0 24 24" fill="none" xmlns="http://www.w3.org/2000/svg">
<path opacity="0.4" d="M22 12C22 17.5228 17.5228 22 12 22C6.47715 22 2 17.5228 2 12C2 6.47715 6.47715 2 12 2C17.5228 2 22 6.47715 22 12Z" fill="#F4C33C"/>
<path d="M15.4904 8.12558C15.2029 7.2807 13.7334 6.8763 12.6508 6.89621C12.2191 6.90367 11.0345 6.92483 10.1324 7.8481C9.45421 8.54243 9.3136 9.35869 9.28374 9.5752C9.25139 9.79918 9.1506 10.5918 9.57615 11.3906C10.1 12.3724 11.1203 12.7967 11.4352 12.9274C12.2925 13.2832 13.0142 13.2496 13.2357 13.7474C13.2655 13.8158 13.3738 14.0572 13.2792 14.3036C13.2083 14.489 13.0565 14.5873 12.9719 14.6408C12.5575 14.8996 12.061 14.8075 11.801 14.7577C11.3505 14.6719 10.9748 14.4703 10.747 14.3484C10.4708 14.1991 10.3439 14.0572 10.0739 14.0261C10.0079 14.0186 9.74662 13.9925 9.50274 14.1281C9.02368 14.3957 8.93907 15.1074 9.03488 15.5777C9.05106 15.6586 9.12198 15.9772 9.38204 16.2907C9.4567 16.3816 9.70805 16.6653 10.4783 16.9303C10.8217 17.0485 11.5571 17.2936 12.5501 17.2153C13.2133 17.163 13.6973 16.9888 13.8665 16.9241C14.3045 16.7561 14.8334 16.5533 15.2863 16.0307C15.7591 15.4844 15.8836 14.8959 15.9333 14.6433C15.9794 14.4081 16.1237 13.6254 15.7554 12.7955C15.3983 11.9892 14.7487 11.5723 14.3643 11.3322C13.1262 10.557 12.0026 10.6963 11.8607 10.0879C11.8097 9.86886 11.9142 9.67101 11.9192 9.66355C12.1233 9.29274 12.7106 9.28528 12.8562 9.28279C13.2556 9.27781 13.5617 9.41966 13.7048 9.4881C14.21 9.7295 14.2361 9.97462 14.5832 10.0157C14.857 10.048 15.1382 9.93107 15.3149 9.75189C15.5613 9.50303 15.57 9.1708 15.5799 8.82986C15.5874 8.5586 15.5463 8.29108 15.4904 8.12683V8.12558Z" fill="#F4C33C"/>
</svg>
