<svg width="25" height="24" viewBox="0 0 25 24" fill="none" xmlns="http://www.w3.org/2000/svg">
<path d="M21.446 8.289C21.4025 7.33125 21.2502 6.6765 21.0275 6.10425C20.7973 5.5125 20.4897 5.01075 19.9895 4.5105C19.4893 4.01025 18.9875 3.70275 18.3958 3.4725C17.8235 3.24975 17.1687 3.0975 16.211 3.054C15.251 3.0105 14.9443 3 12.5 3C10.0557 3 9.749 3.0105 8.789 3.054C7.83125 3.0975 7.1765 3.24975 6.60425 3.4725C6.0125 3.70275 5.51075 4.01025 5.0105 4.5105C4.51025 5.01075 4.20275 5.5125 3.9725 6.10425C3.74975 6.6765 3.5975 7.33125 3.554 8.289C3.5105 9.249 3.5 9.55575 3.5 12C3.5 14.4443 3.5105 14.751 3.554 15.711C3.5975 16.6687 3.74975 17.3235 3.9725 17.8958C4.20275 18.4875 4.51025 18.9893 5.0105 19.4895C5.51075 19.9897 6.0125 20.2973 6.60425 20.5275C7.1765 20.7502 7.83125 20.9018 8.789 20.946C9.749 20.9895 10.0557 21 12.5 21C14.9443 21 15.251 20.9895 16.211 20.946C17.1687 20.9025 17.8235 20.7502 18.3958 20.5275C18.9875 20.2973 19.4893 19.9897 19.9895 19.4895C20.4897 18.9893 20.7973 18.4875 21.0275 17.8958C21.2502 17.3235 21.4018 16.6687 21.446 15.711C21.4895 14.751 21.5 14.4443 21.5 12C21.5 9.55575 21.4895 9.249 21.446 8.289ZM19.826 15.6368C19.7862 16.5143 19.6392 16.9905 19.5163 17.3077C19.3527 17.7277 19.1578 18.0278 18.8428 18.3428C18.5278 18.6578 18.2277 18.8527 17.8077 19.0163C17.4905 19.1392 17.0143 19.2862 16.1368 19.326C15.188 19.3695 14.903 19.3785 12.5 19.3785C10.097 19.3785 9.812 19.3695 8.86325 19.326C7.98575 19.2862 7.5095 19.1392 7.19225 19.0163C6.77225 18.8527 6.47225 18.6578 6.15725 18.3428C5.84225 18.0278 5.64725 17.7277 5.48375 17.3077C5.36075 16.9905 5.21375 16.5143 5.174 15.6368C5.1305 14.688 5.1215 14.403 5.1215 12C5.1215 9.597 5.1305 9.312 5.174 8.36325C5.21375 7.48575 5.36075 7.0095 5.48375 6.69225C5.64725 6.27225 5.84225 5.97225 6.15725 5.65725C6.47225 5.34225 6.77225 5.14725 7.19225 4.98375C7.5095 4.86075 7.98575 4.71375 8.86325 4.674C9.812 4.6305 10.097 4.6215 12.5 4.6215C14.903 4.6215 15.188 4.6305 16.1368 4.674C17.0143 4.71375 17.4905 4.86075 17.8077 4.98375C18.2277 5.14725 18.5278 5.34225 18.8428 5.65725C19.1578 5.97225 19.3527 6.27225 19.5163 6.69225C19.6392 7.0095 19.7862 7.48575 19.826 8.36325C19.8695 9.312 19.8785 9.597 19.8785 12C19.8785 14.403 19.8695 14.688 19.826 15.6368ZM12.5 7.3785C9.94775 7.3785 7.8785 9.44775 7.8785 12C7.8785 14.5522 9.94775 16.6215 12.5 16.6215C15.0522 16.6215 17.1215 14.5522 17.1215 12C17.1215 9.44775 15.0522 7.3785 12.5 7.3785ZM12.5 15C10.8432 15 9.5 13.6567 9.5 12C9.5 10.3432 10.8432 9 12.5 9C14.1567 9 15.5 10.3432 15.5 12C15.5 13.6567 14.1567 15 12.5 15ZM18.3845 7.1955C18.3845 7.79175 17.9008 8.2755 17.3045 8.2755C16.7083 8.2755 16.2245 7.79175 16.2245 7.1955C16.2245 6.59925 16.7083 6.1155 17.3045 6.1155C17.9008 6.1155 18.3845 6.59925 18.3845 7.1955Z" fill="#F4783C"/>
</svg>
