<svg width="25" height="24" viewBox="0 0 25 24" fill="none" xmlns="http://www.w3.org/2000/svg">
<path d="M3.27711 8.13375H7.33386V20.34H3.27711V8.13375ZM5.33211 2.25C3.94461 2.25 3.03711 3.16125 3.03711 4.359C3.03711 5.5305 3.91761 6.46725 5.27886 6.46725H5.30511C6.71961 6.46725 7.60011 5.52975 7.60011 4.359C7.57386 3.16125 6.71961 2.25 5.33136 2.25H5.33211ZM17.2916 7.848C15.1384 7.848 14.1746 9.0315 13.6354 9.86325V8.1345H9.57861C9.63186 9.27975 9.57861 20.3407 9.57861 20.3407H13.6354V13.5248C13.6354 13.1603 13.6616 12.7957 13.7689 12.5347C14.0621 11.8057 14.7296 11.0512 15.8501 11.0512C17.3179 11.0512 17.9051 12.1703 17.9051 13.8113V20.3407H21.9619V13.3417C21.9619 9.5925 19.9601 7.848 17.2909 7.848H17.2916Z" fill="#F4783C"/>
</svg>
