<svg width="25" height="24" viewBox="0 0 25 24" fill="none" xmlns="http://www.w3.org/2000/svg">
<path fill-rule="evenodd" clip-rule="evenodd" d="M3.78848 10.6893C8.82173 8.49635 12.178 7.0511 13.8572 6.3521C18.652 4.35785 19.648 4.01135 20.2975 4.0001C20.44 3.99785 20.7595 4.0331 20.9665 4.2011C21.1412 4.34285 21.1892 4.5341 21.2125 4.66835C21.2357 4.8026 21.2642 5.1086 21.241 5.34785C20.9815 8.07785 19.8572 14.7026 19.285 17.7603C19.0427 19.0541 18.5665 19.4883 18.1052 19.5303C17.1025 19.6226 16.3412 18.8681 15.37 18.2313C13.8505 17.2353 12.9917 16.6151 11.5172 15.6431C9.81248 14.5196 10.918 13.9023 11.8892 12.8936C12.1435 12.6296 16.561 8.6111 16.6465 8.2466C16.657 8.20085 16.6667 8.03135 16.5662 7.94135C16.4657 7.85135 16.3165 7.8821 16.2085 7.90685C16.0562 7.94135 13.6285 9.5456 8.92598 12.7203C8.23673 13.1936 7.61273 13.4238 7.05398 13.4118C6.43748 13.3983 5.25173 13.0631 4.37048 12.7766C3.28898 12.4248 2.43023 12.2396 2.50448 11.6426C2.54348 11.3313 2.97173 11.0141 3.78923 10.6886L3.78848 10.6893Z" fill="#F4783C"/>
</svg>
